<?xml version="1.0" standalone="no"?><!DOCTYPE svg PUBLIC "-//W3C//DTD SVG 1.1//EN" "http://www.w3.org/Graphics/SVG/1.1/DTD/svg11.dtd"><svg t="1576224546951" class="icon" viewBox="0 0 1026 1024" version="1.1" xmlns="http://www.w3.org/2000/svg" p-id="5229" xmlns:xlink="http://www.w3.org/1999/xlink" width="200.390625" height="200"><defs><style type="text/css"></style></defs><path d="M237.27232 942.208c-12.16-8.448-18.24-22.4-15.872-36.48l42.688-254.912C265.68832 641.152 262.48832 631.296 255.64032 624.32L71.51232 440.512c-10.048-9.984-13.376-24.448-8.96-37.632C67.16032 389.504 79.51232 379.52 93.97632 377.344l251.2-37.312C355.09632 338.56 363.67232 332.288 368.02432 323.264l109.12-226.624c6.464-13.312 20.48-21.952 35.904-21.952 15.296 0 29.44 8.64 35.776 21.888l109.184 226.688c4.352 9.024 12.928 15.232 22.848 16.768l251.008 37.376c14.784 2.176 26.816 11.968 31.424 25.408 4.544 13.248 1.152 27.712-8.96 37.696l-184 183.808c-6.912 6.976-10.048 16.832-8.448 26.432l42.688 254.912c2.368 14.144-3.712 28.032-15.872 36.48-12.288 8.32-29.312 9.344-42.432 2.176l-218.944-117.824c-4.48-2.432-9.408-3.712-14.272-3.712-4.992 0-9.92 1.28-14.4 3.712l-218.752 117.824c-6.08 3.136-12.8 4.736-19.52 4.736C252.18432 949.12 243.99232 946.752 237.27232 942.208M422.68032 70.4 320.47232 282.56 85.20832 317.568C47.96032 323.072 17.43232 348.224 5.40032 383.168-6.69568 418.56 2.26432 456.896 28.82432 483.392l173.056 172.736-40.064 239.488c-6.336 36.992 9.92 74.88 41.216 96.448 30.528 20.864 72.128 23.232 105.408 5.632l204.608-110.144 204.672 110.144c14.656 7.936 31.232 12.032 47.872 12.032 20.48 0 40.384-6.08 57.344-17.728 31.296-21.44 47.424-59.328 41.28-96.32l-40.128-239.488 173.056-172.736c26.432-26.496 35.52-64.832 23.36-100.224-12.032-35.008-42.624-60.032-79.744-65.6l-235.264-35.008L603.35232 70.4C586.84032 36.288 551.38432 14.272 513.04832 14.272 474.52032 14.272 439.00032 36.288 422.68032 70.4" p-id="5230" fill="#FFFFFF"></path></svg>