<?xml version="1.0" standalone="no"?><!DOCTYPE svg PUBLIC "-//W3C//DTD SVG 1.1//EN" "http://www.w3.org/Graphics/SVG/1.1/DTD/svg11.dtd"><svg t="1576224238313" class="icon" viewBox="0 0 1024 1024" version="1.1" xmlns="http://www.w3.org/2000/svg" p-id="3688" xmlns:xlink="http://www.w3.org/1999/xlink" width="200" height="200"><defs><style type="text/css"></style></defs><path d="M490.666667 810.666667l-204.8 106.666666c-21.333333 12.8-46.933333 4.266667-59.733334-17.066666-4.266667-8.533333-4.266667-17.066667-4.266666-25.6l38.4-226.133334c4.266667-12.8-4.266667-29.866667-12.8-38.4L85.333333 448c-17.066667-17.066667-17.066667-42.666667 0-59.733333 8.533333-8.533333 17.066667-12.8 25.6-12.8L337.066667 341.333333c12.8 0 25.6-12.8 34.133333-21.333333L469.333333 110.933333c8.533333-21.333333 34.133333-29.866667 55.466667-21.333333 8.533333 4.266667 17.066667 12.8 21.333333 21.333333l102.4 209.066667c8.533333 12.8 21.333333 21.333333 34.133334 21.333333l230.4 34.133334c21.333333 4.266667 38.4 25.6 34.133333 46.933333 0 8.533333-4.266667 17.066667-12.8 25.6L768 610.133333c-8.533333 8.533333-12.8 25.6-12.8 38.4l38.4 226.133334c4.266667 21.333333-12.8 46.933333-34.133333 51.2-8.533333 0-17.066667 0-25.6-4.266667L529.066667 810.666667c-12.8-4.266667-25.6-4.266667-38.4 0z" p-id="3689" fill="#e6e6e6"></path><path d="M810.666667 960L529.066667 810.666667c-12.8-8.533333-25.6-8.533333-38.4 0l-281.6 149.333333 55.466666-311.466667c4.266667-12.8-4.266667-29.866667-12.8-38.4L21.333333 388.266667 337.066667 341.333333c12.8 0 25.6-12.8 34.133333-21.333333L512 34.133333l140.8 285.866667c4.266667 12.8 17.066667 21.333333 29.866667 21.333333l315.733333 46.933334-230.4 221.866666c-8.533333 8.533333-12.8 25.6-12.8 38.4l55.466667 311.466667z m-605.866667-512l102.4 102.4c29.866667 29.866667 42.666667 72.533333 38.4 115.2l-25.6 140.8 128-68.266667c38.4-21.333333 81.066667-21.333333 119.466667 0l128 68.266667-25.6-140.8c-8.533333-42.666667 8.533333-85.333333 38.4-115.2l102.4-102.4-140.8-21.333333c-42.666667-4.266667-76.8-34.133333-98.133334-68.266667l-64-128-64 128c-17.066667 34.133333-51.2 64-93.866666 68.266667l-145.066667 21.333333z" p-id="3690" fill="#e6e6e6"></path></svg>